<svg id="visual" viewBox="0 0 960 540" width="960" height="540" xmlns="http://www.w3.org/2000/svg" xmlns:xlink="http://www.w3.org/1999/xlink" version="1.1"><g stroke-width="1" stroke-linejoin="bevel"><path d="M467 267L496 304L496 267Z" fill="#00101c" stroke="#00101c"></path><path d="M467 267L463 312L496 304Z" fill="#0c2435" stroke="#0c2435"></path><path d="M512 313L519 299L496 304Z" fill="#0c2435" stroke="#0c2435"></path><path d="M496 304L519 299L496 267Z" fill="#15384f" stroke="#15384f"></path><path d="M510 356L512 313L496 304Z" fill="#081a28" stroke="#081a28"></path><path d="M437 285L451 316L463 312Z" fill="#112e42" stroke="#112e42"></path><path d="M487 364L510 356L496 304Z" fill="#081a28" stroke="#081a28"></path><path d="M467 267L437 285L463 312Z" fill="#246688" stroke="#246688"></path><path d="M535 340L533 315L512 313Z" fill="#19435d" stroke="#19435d"></path><path d="M512 313L533 315L519 299Z" fill="#19435d" stroke="#19435d"></path><path d="M519 299L552 283L496 267Z" fill="#081a28" stroke="#081a28"></path><path d="M533 315L552 283L519 299Z" fill="#277297" stroke="#277297"></path><path d="M487 364L496 304L463 312Z" fill="#246688" stroke="#246688"></path><path d="M533 315L563 308L552 283Z" fill="#0c2435" stroke="#0c2435"></path><path d="M510 356L535 340L512 313Z" fill="#0c2435" stroke="#0c2435"></path><path d="M565 232L476 207L496 267Z" fill="#205a7a" stroke="#205a7a"></path><path d="M496 267L476 207L467 267Z" fill="#1d4e6b" stroke="#1d4e6b"></path><path d="M398 218L383 252L437 285Z" fill="#1d4e6b" stroke="#1d4e6b"></path><path d="M451 316L487 364L463 312Z" fill="#081a28" stroke="#081a28"></path><path d="M535 340L563 308L533 315Z" fill="#19435d" stroke="#19435d"></path><path d="M563 308L569 296L552 283Z" fill="#00101c" stroke="#00101c"></path><path d="M552 283L565 232L496 267Z" fill="#112e42" stroke="#112e42"></path><path d="M403 351L448 378L451 316Z" fill="#0c2435" stroke="#0c2435"></path><path d="M451 316L448 378L487 364Z" fill="#00101c" stroke="#00101c"></path><path d="M487 364L490 388L510 356Z" fill="#277297" stroke="#277297"></path><path d="M608 270L565 232L552 283Z" fill="#15384f" stroke="#15384f"></path><path d="M383 252L403 351L437 285Z" fill="#246688" stroke="#246688"></path><path d="M437 285L403 351L451 316Z" fill="#297ea6" stroke="#297ea6"></path><path d="M448 378L490 388L487 364Z" fill="#19435d" stroke="#19435d"></path><path d="M527 431L599 348L535 340Z" fill="#081a28" stroke="#081a28"></path><path d="M398 218L437 285L467 267Z" fill="#19435d" stroke="#19435d"></path><path d="M476 207L398 218L467 267Z" fill="#205a7a" stroke="#205a7a"></path><path d="M608 270L569 222L565 232Z" fill="#1d4e6b" stroke="#1d4e6b"></path><path d="M565 232L565 195L476 207Z" fill="#15384f" stroke="#15384f"></path><path d="M599 348L594 309L563 308Z" fill="#00101c" stroke="#00101c"></path><path d="M563 308L594 309L569 296Z" fill="#081a28" stroke="#081a28"></path><path d="M569 296L608 270L552 283Z" fill="#00101c" stroke="#00101c"></path><path d="M599 348L563 308L535 340Z" fill="#112e42" stroke="#112e42"></path><path d="M608 194L565 195L569 222Z" fill="#081a28" stroke="#081a28"></path><path d="M569 222L565 195L565 232Z" fill="#205a7a" stroke="#205a7a"></path><path d="M594 309L608 270L569 296Z" fill="#112e42" stroke="#112e42"></path><path d="M527 431L535 340L510 356Z" fill="#297ea6" stroke="#297ea6"></path><path d="M594 309L675 346L608 270Z" fill="#205a7a" stroke="#205a7a"></path><path d="M398 218L359 230L383 252Z" fill="#297ea6" stroke="#297ea6"></path><path d="M383 252L352 343L403 351Z" fill="#112e42" stroke="#112e42"></path><path d="M565 195L499 151L476 207Z" fill="#19435d" stroke="#19435d"></path><path d="M476 207L383 169L398 218Z" fill="#1d4e6b" stroke="#1d4e6b"></path><path d="M398 218L362 211L359 230Z" fill="#246688" stroke="#246688"></path><path d="M383 169L362 211L398 218Z" fill="#15384f" stroke="#15384f"></path><path d="M292 320L352 343L383 252Z" fill="#00101c" stroke="#00101c"></path><path d="M403 351L396 418L448 378Z" fill="#19435d" stroke="#19435d"></path><path d="M444 454L527 431L490 388Z" fill="#0c2435" stroke="#0c2435"></path><path d="M490 388L527 431L510 356Z" fill="#081a28" stroke="#081a28"></path><path d="M444 454L490 388L448 378Z" fill="#205a7a" stroke="#205a7a"></path><path d="M418 119L383 169L476 207Z" fill="#15384f" stroke="#15384f"></path><path d="M608 270L608 194L569 222Z" fill="#1d4e6b" stroke="#1d4e6b"></path><path d="M565 195L576 133L499 151Z" fill="#205a7a" stroke="#205a7a"></path><path d="M345 396L396 418L403 351Z" fill="#205a7a" stroke="#205a7a"></path><path d="M396 418L399 420L448 378Z" fill="#205a7a" stroke="#205a7a"></path><path d="M608 194L596 171L565 195Z" fill="#19435d" stroke="#19435d"></path><path d="M304 347L337 367L352 343Z" fill="#112e42" stroke="#112e42"></path><path d="M352 343L345 396L403 351Z" fill="#205a7a" stroke="#205a7a"></path><path d="M304 347L352 343L292 320Z" fill="#1d4e6b" stroke="#1d4e6b"></path><path d="M435 453L448 378L399 420Z" fill="#15384f" stroke="#15384f"></path><path d="M435 453L444 454L448 378Z" fill="#1d4e6b" stroke="#1d4e6b"></path><path d="M429 477L435 453L399 420Z" fill="#205a7a" stroke="#205a7a"></path><path d="M362 446L399 420L396 418Z" fill="#081a28" stroke="#081a28"></path><path d="M337 367L345 396L352 343Z" fill="#205a7a" stroke="#205a7a"></path><path d="M608 194L605 159L596 171Z" fill="#1d4e6b" stroke="#1d4e6b"></path><path d="M596 171L576 133L565 195Z" fill="#00101c" stroke="#00101c"></path><path d="M475 71L418 119L499 151Z" fill="#00101c" stroke="#00101c"></path><path d="M499 151L418 119L476 207Z" fill="#246688" stroke="#246688"></path><path d="M605 159L576 133L596 171Z" fill="#19435d" stroke="#19435d"></path><path d="M635 391L648 364L599 348Z" fill="#19435d" stroke="#19435d"></path><path d="M599 348L648 364L594 309Z" fill="#246688" stroke="#246688"></path><path d="M687 191L639 151L608 194Z" fill="#0c2435" stroke="#0c2435"></path><path d="M639 151L616 135L605 159Z" fill="#205a7a" stroke="#205a7a"></path><path d="M527 431L635 391L599 348Z" fill="#00101c" stroke="#00101c"></path><path d="M444 454L524 467L527 431Z" fill="#246688" stroke="#246688"></path><path d="M527 431L626 436L635 391Z" fill="#112e42" stroke="#112e42"></path><path d="M429 477L524 467L444 454Z" fill="#297ea6" stroke="#297ea6"></path><path d="M383 169L334 170L362 211Z" fill="#00101c" stroke="#00101c"></path><path d="M362 211L334 170L359 230Z" fill="#1d4e6b" stroke="#1d4e6b"></path><path d="M366 129L334 170L383 169Z" fill="#081a28" stroke="#081a28"></path><path d="M292 320L383 252L359 230Z" fill="#081a28" stroke="#081a28"></path><path d="M284 416L337 415L345 396Z" fill="#277297" stroke="#277297"></path><path d="M268 269L292 320L359 230Z" fill="#112e42" stroke="#112e42"></path><path d="M284 416L345 396L337 367Z" fill="#19435d" stroke="#19435d"></path><path d="M345 396L337 415L396 418Z" fill="#205a7a" stroke="#205a7a"></path><path d="M418 119L366 129L383 169Z" fill="#1d4e6b" stroke="#1d4e6b"></path><path d="M616 135L602 131L605 159Z" fill="#297ea6" stroke="#297ea6"></path><path d="M605 159L602 131L576 133Z" fill="#19435d" stroke="#19435d"></path><path d="M576 133L475 71L499 151Z" fill="#19435d" stroke="#19435d"></path><path d="M362 446L429 477L399 420Z" fill="#1d4e6b" stroke="#1d4e6b"></path><path d="M435 453L429 477L444 454Z" fill="#205a7a" stroke="#205a7a"></path><path d="M337 415L362 446L396 418Z" fill="#15384f" stroke="#15384f"></path><path d="M639 151L605 159L608 194Z" fill="#205a7a" stroke="#205a7a"></path><path d="M668 366L675 346L648 364Z" fill="#297ea6" stroke="#297ea6"></path><path d="M648 364L675 346L594 309Z" fill="#00101c" stroke="#00101c"></path><path d="M635 391L668 366L648 364Z" fill="#277297" stroke="#277297"></path><path d="M687 191L608 194L608 270Z" fill="#00101c" stroke="#00101c"></path><path d="M524 467L626 436L527 431Z" fill="#19435d" stroke="#19435d"></path><path d="M635 391L664 420L668 366Z" fill="#0c2435" stroke="#0c2435"></path><path d="M348 115L341 130L366 129Z" fill="#1d4e6b" stroke="#1d4e6b"></path><path d="M366 129L341 130L334 170Z" fill="#00101c" stroke="#00101c"></path><path d="M265 223L268 269L359 230Z" fill="#19435d" stroke="#19435d"></path><path d="M272 443L358 459L337 415Z" fill="#081a28" stroke="#081a28"></path><path d="M337 415L358 459L362 446Z" fill="#246688" stroke="#246688"></path><path d="M362 446L358 459L429 477Z" fill="#277297" stroke="#277297"></path><path d="M265 223L359 230L334 170Z" fill="#081a28" stroke="#081a28"></path><path d="M262 375L284 416L304 347Z" fill="#1d4e6b" stroke="#1d4e6b"></path><path d="M608 85L576 133L602 131Z" fill="#246688" stroke="#246688"></path><path d="M566 44L475 71L576 133Z" fill="#246688" stroke="#246688"></path><path d="M393 79L348 115L366 129Z" fill="#277297" stroke="#277297"></path><path d="M393 79L366 129L418 119Z" fill="#0c2435" stroke="#0c2435"></path><path d="M292 140L265 223L334 170Z" fill="#0c2435" stroke="#0c2435"></path><path d="M605 529L633 444L626 436Z" fill="#19435d" stroke="#19435d"></path><path d="M626 436L640 439L635 391Z" fill="#081a28" stroke="#081a28"></path><path d="M705 345L696 337L675 346Z" fill="#1d4e6b" stroke="#1d4e6b"></path><path d="M675 346L696 337L608 270Z" fill="#1d4e6b" stroke="#1d4e6b"></path><path d="M705 345L675 346L668 366Z" fill="#19435d" stroke="#19435d"></path><path d="M633 444L640 439L626 436Z" fill="#277297" stroke="#277297"></path><path d="M475 71L393 79L418 119Z" fill="#00101c" stroke="#00101c"></path><path d="M292 140L334 170L341 130Z" fill="#246688" stroke="#246688"></path><path d="M711 208L687 191L723 234Z" fill="#15384f" stroke="#15384f"></path><path d="M640 439L664 420L635 391Z" fill="#1d4e6b" stroke="#1d4e6b"></path><path d="M664 420L705 345L668 366Z" fill="#246688" stroke="#246688"></path><path d="M723 234L687 191L608 270Z" fill="#19435d" stroke="#19435d"></path><path d="M444 540L536 512L524 467Z" fill="#1d4e6b" stroke="#1d4e6b"></path><path d="M524 467L605 529L626 436Z" fill="#081a28" stroke="#081a28"></path><path d="M444 540L524 467L429 477Z" fill="#081a28" stroke="#081a28"></path><path d="M262 375L304 347L292 320Z" fill="#1d4e6b" stroke="#1d4e6b"></path><path d="M304 347L284 416L337 367Z" fill="#081a28" stroke="#081a28"></path><path d="M206 349L262 375L292 320Z" fill="#081a28" stroke="#081a28"></path><path d="M248 397L262 375L206 349Z" fill="#19435d" stroke="#19435d"></path><path d="M673 118L608 85L616 135Z" fill="#112e42" stroke="#112e42"></path><path d="M616 135L608 85L602 131Z" fill="#205a7a" stroke="#205a7a"></path><path d="M673 118L616 135L639 151Z" fill="#0c2435" stroke="#0c2435"></path><path d="M566 44L477 47L475 71Z" fill="#246688" stroke="#246688"></path><path d="M475 71L477 47L393 79Z" fill="#19435d" stroke="#19435d"></path><path d="M284 126L341 130L348 115Z" fill="#1d4e6b" stroke="#1d4e6b"></path><path d="M284 126L292 140L341 130Z" fill="#19435d" stroke="#19435d"></path><path d="M687 191L682 155L639 151Z" fill="#081a28" stroke="#081a28"></path><path d="M426 0L377 67L393 79Z" fill="#112e42" stroke="#112e42"></path><path d="M393 79L377 67L348 115Z" fill="#297ea6" stroke="#297ea6"></path><path d="M723 234L608 270L696 337Z" fill="#00101c" stroke="#00101c"></path><path d="M687 191L735 181L682 155Z" fill="#112e42" stroke="#112e42"></path><path d="M681 126L678 142L682 155Z" fill="#297ea6" stroke="#297ea6"></path><path d="M682 155L678 142L639 151Z" fill="#246688" stroke="#246688"></path><path d="M738 297L723 234L696 337Z" fill="#277297" stroke="#277297"></path><path d="M360 50L284 126L348 115Z" fill="#297ea6" stroke="#297ea6"></path><path d="M292 140L274 130L265 223Z" fill="#205a7a" stroke="#205a7a"></path><path d="M681 126L673 118L678 142Z" fill="#1d4e6b" stroke="#1d4e6b"></path><path d="M678 142L673 118L639 151Z" fill="#19435d" stroke="#19435d"></path><path d="M681 126L682 155L719 107Z" fill="#081a28" stroke="#081a28"></path><path d="M735 181L687 191L711 208Z" fill="#15384f" stroke="#15384f"></path><path d="M605 38L566 44L608 85Z" fill="#1d4e6b" stroke="#1d4e6b"></path><path d="M608 85L566 44L576 133Z" fill="#19435d" stroke="#19435d"></path><path d="M767 324L738 297L705 345Z" fill="#19435d" stroke="#19435d"></path><path d="M705 345L738 297L696 337Z" fill="#112e42" stroke="#112e42"></path><path d="M430 540L429 477L399 540Z" fill="#15384f" stroke="#15384f"></path><path d="M430 540L444 540L429 477Z" fill="#15384f" stroke="#15384f"></path><path d="M262 375L248 397L284 416Z" fill="#205a7a" stroke="#205a7a"></path><path d="M399 540L429 477L358 459Z" fill="#0c2435" stroke="#0c2435"></path><path d="M204 283L292 320L268 269Z" fill="#297ea6" stroke="#297ea6"></path><path d="M199 136L274 130L192 60Z" fill="#19435d" stroke="#19435d"></path><path d="M284 126L274 130L292 140Z" fill="#297ea6" stroke="#297ea6"></path><path d="M265 223L225 217L268 269Z" fill="#205a7a" stroke="#205a7a"></path><path d="M272 443L337 415L284 416Z" fill="#112e42" stroke="#112e42"></path><path d="M248 397L272 443L284 416Z" fill="#0c2435" stroke="#0c2435"></path><path d="M444 540L549 540L536 512Z" fill="#081a28" stroke="#081a28"></path><path d="M536 512L605 529L524 467Z" fill="#205a7a" stroke="#205a7a"></path><path d="M633 444L690 503L640 439Z" fill="#297ea6" stroke="#297ea6"></path><path d="M640 439L690 503L664 420Z" fill="#205a7a" stroke="#205a7a"></path><path d="M426 0L360 50L377 67Z" fill="#205a7a" stroke="#205a7a"></path><path d="M377 67L360 50L348 115Z" fill="#277297" stroke="#277297"></path><path d="M426 0L393 79L477 47Z" fill="#19435d" stroke="#19435d"></path><path d="M274 130L225 217L265 223Z" fill="#15384f" stroke="#15384f"></path><path d="M318 528L399 540L358 459Z" fill="#1d4e6b" stroke="#1d4e6b"></path><path d="M549 540L570 540L536 512Z" fill="#246688" stroke="#246688"></path><path d="M570 540L573 540L536 512Z" fill="#081a28" stroke="#081a28"></path><path d="M566 44L483 15L477 47Z" fill="#081a28" stroke="#081a28"></path><path d="M573 540L605 529L536 512Z" fill="#00101c" stroke="#00101c"></path><path d="M783 329L767 324L765 405Z" fill="#0c2435" stroke="#0c2435"></path><path d="M736 183L711 208L723 234Z" fill="#081a28" stroke="#081a28"></path><path d="M736 183L735 181L711 208Z" fill="#00101c" stroke="#00101c"></path><path d="M768 206L736 183L723 234Z" fill="#1d4e6b" stroke="#1d4e6b"></path><path d="M489 0L469 10L483 15Z" fill="#00101c" stroke="#00101c"></path><path d="M483 15L469 10L477 47Z" fill="#15384f" stroke="#15384f"></path><path d="M672 54L605 38L608 85Z" fill="#112e42" stroke="#112e42"></path><path d="M566 44L489 0L483 15Z" fill="#112e42" stroke="#112e42"></path><path d="M672 54L608 85L673 118Z" fill="#15384f" stroke="#15384f"></path><path d="M719 107L673 118L681 126Z" fill="#246688" stroke="#246688"></path><path d="M225 217L204 283L268 269Z" fill="#00101c" stroke="#00101c"></path><path d="M204 283L206 349L292 320Z" fill="#00101c" stroke="#00101c"></path><path d="M240 467L267 471L272 443Z" fill="#205a7a" stroke="#205a7a"></path><path d="M221 408L272 443L248 397Z" fill="#205a7a" stroke="#205a7a"></path><path d="M272 443L267 471L358 459Z" fill="#297ea6" stroke="#297ea6"></path><path d="M573 540L607 540L605 529Z" fill="#112e42" stroke="#112e42"></path><path d="M605 529L620 534L633 444Z" fill="#277297" stroke="#277297"></path><path d="M607 540L620 534L605 529Z" fill="#0c2435" stroke="#0c2435"></path><path d="M615 0L489 0L566 44Z" fill="#081a28" stroke="#081a28"></path><path d="M469 10L435 0L477 47Z" fill="#00101c" stroke="#00101c"></path><path d="M489 0L465 0L469 10Z" fill="#00101c" stroke="#00101c"></path><path d="M465 0L461 0L469 10Z" fill="#081a28" stroke="#081a28"></path><path d="M217 405L221 408L248 397Z" fill="#205a7a" stroke="#205a7a"></path><path d="M767 324L705 345L765 405Z" fill="#297ea6" stroke="#297ea6"></path><path d="M808 250L768 206L723 234Z" fill="#15384f" stroke="#15384f"></path><path d="M461 0L435 0L469 10Z" fill="#297ea6" stroke="#297ea6"></path><path d="M225 217L179 233L204 283Z" fill="#15384f" stroke="#15384f"></path><path d="M199 136L203 204L225 217Z" fill="#246688" stroke="#246688"></path><path d="M206 349L217 405L248 397Z" fill="#00101c" stroke="#00101c"></path><path d="M221 408L240 467L272 443Z" fill="#246688" stroke="#246688"></path><path d="M435 0L426 0L477 47Z" fill="#246688" stroke="#246688"></path><path d="M204 283L192 322L206 349Z" fill="#15384f" stroke="#15384f"></path><path d="M206 349L192 412L217 405Z" fill="#112e42" stroke="#112e42"></path><path d="M150 321L192 322L204 283Z" fill="#1d4e6b" stroke="#1d4e6b"></path><path d="M267 471L318 528L358 459Z" fill="#19435d" stroke="#19435d"></path><path d="M607 540L626 540L620 534Z" fill="#15384f" stroke="#15384f"></path><path d="M620 534L690 503L633 444Z" fill="#297ea6" stroke="#297ea6"></path><path d="M783 329L775 314L767 324Z" fill="#19435d" stroke="#19435d"></path><path d="M767 324L775 314L738 297Z" fill="#205a7a" stroke="#205a7a"></path><path d="M461 0L446 -8L435 0Z" fill="#277297" stroke="#277297"></path><path d="M435 0L446 -8L426 0Z" fill="#00101c" stroke="#00101c"></path><path d="M451 -25L446 -8L461 0Z" fill="#19435d" stroke="#19435d"></path><path d="M451 -25L461 0L465 0Z" fill="#00101c" stroke="#00101c"></path><path d="M750 102L719 107L735 181Z" fill="#246688" stroke="#246688"></path><path d="M735 181L719 107L682 155Z" fill="#081a28" stroke="#081a28"></path><path d="M768 173L735 181L736 183Z" fill="#15384f" stroke="#15384f"></path><path d="M808 250L723 234L738 297Z" fill="#277297" stroke="#277297"></path><path d="M719 107L672 54L673 118Z" fill="#205a7a" stroke="#205a7a"></path><path d="M615 0L451 -25L489 0Z" fill="#15384f" stroke="#15384f"></path><path d="M626 540L690 503L620 534Z" fill="#1d4e6b" stroke="#1d4e6b"></path><path d="M188 450L240 467L221 408Z" fill="#081a28" stroke="#081a28"></path><path d="M267 471L232 540L318 528Z" fill="#205a7a" stroke="#205a7a"></path><path d="M765 405L705 345L664 420Z" fill="#112e42" stroke="#112e42"></path><path d="M775 314L808 250L738 297Z" fill="#246688" stroke="#246688"></path><path d="M607 540L630 554L626 540Z" fill="#19435d" stroke="#19435d"></path><path d="M626 540L681 540L690 503Z" fill="#15384f" stroke="#15384f"></path><path d="M573 540L630 554L607 540Z" fill="#19435d" stroke="#19435d"></path><path d="M570 540L630 554L573 540Z" fill="#1d4e6b" stroke="#1d4e6b"></path><path d="M549 540L630 554L570 540Z" fill="#0c2435" stroke="#0c2435"></path><path d="M444 540L630 554L549 540Z" fill="#19435d" stroke="#19435d"></path><path d="M243 580L630 554L444 540Z" fill="#277297" stroke="#277297"></path><path d="M243 580L444 540L430 540Z" fill="#246688" stroke="#246688"></path><path d="M203 204L179 233L225 217Z" fill="#112e42" stroke="#112e42"></path><path d="M773 468L765 405L664 420Z" fill="#1d4e6b" stroke="#1d4e6b"></path><path d="M858 157L768 173L768 206Z" fill="#277297" stroke="#277297"></path><path d="M768 206L768 173L736 183Z" fill="#15384f" stroke="#15384f"></path><path d="M489 0L451 -25L465 0Z" fill="#297ea6" stroke="#297ea6"></path><path d="M446 -8L451 -25L426 0Z" fill="#081a28" stroke="#081a28"></path><path d="M278 -24L285 11L360 50Z" fill="#081a28" stroke="#081a28"></path><path d="M615 0L566 44L605 38Z" fill="#00101c" stroke="#00101c"></path><path d="M631 2L615 0L605 38Z" fill="#205a7a" stroke="#205a7a"></path><path d="M125 382L192 412L206 349Z" fill="#1d4e6b" stroke="#1d4e6b"></path><path d="M217 405L192 420L221 408Z" fill="#277297" stroke="#277297"></path><path d="M150 321L206 349L192 322Z" fill="#15384f" stroke="#15384f"></path><path d="M765 405L824 357L783 329Z" fill="#297ea6" stroke="#297ea6"></path><path d="M787 449L775 410L765 405Z" fill="#081a28" stroke="#081a28"></path><path d="M135 422L192 420L192 412Z" fill="#205a7a" stroke="#205a7a"></path><path d="M192 412L192 420L217 405Z" fill="#277297" stroke="#277297"></path><path d="M255 13L274 130L284 126Z" fill="#246688" stroke="#246688"></path><path d="M274 130L199 136L225 217Z" fill="#0c2435" stroke="#0c2435"></path><path d="M203 204L144 215L179 233Z" fill="#0c2435" stroke="#0c2435"></path><path d="M185 139L199 136L192 60Z" fill="#00101c" stroke="#00101c"></path><path d="M672 54L631 2L605 38Z" fill="#00101c" stroke="#00101c"></path><path d="M615 0L669 -10L451 -25Z" fill="#19435d" stroke="#19435d"></path><path d="M669 -10L631 2L672 54Z" fill="#277297" stroke="#277297"></path><path d="M630 554L681 540L626 540Z" fill="#277297" stroke="#277297"></path><path d="M690 503L773 468L664 420Z" fill="#1d4e6b" stroke="#1d4e6b"></path><path d="M768 173L750 102L735 181Z" fill="#205a7a" stroke="#205a7a"></path><path d="M719 107L726 0L672 54Z" fill="#00101c" stroke="#00101c"></path><path d="M835 303L775 314L783 329Z" fill="#19435d" stroke="#19435d"></path><path d="M835 303L808 250L775 314Z" fill="#081a28" stroke="#081a28"></path><path d="M768 173L828 109L750 102Z" fill="#0c2435" stroke="#0c2435"></path><path d="M285 11L284 126L360 50Z" fill="#277297" stroke="#277297"></path><path d="M199 136L185 139L203 204Z" fill="#205a7a" stroke="#205a7a"></path><path d="M149 251L204 283L179 233Z" fill="#00101c" stroke="#00101c"></path><path d="M149 251L150 321L204 283Z" fill="#246688" stroke="#246688"></path><path d="M144 215L149 251L179 233Z" fill="#1d4e6b" stroke="#1d4e6b"></path><path d="M135 422L188 450L192 420Z" fill="#081a28" stroke="#081a28"></path><path d="M192 420L188 450L221 408Z" fill="#297ea6" stroke="#297ea6"></path><path d="M240 467L232 540L267 471Z" fill="#00101c" stroke="#00101c"></path><path d="M278 -24L360 50L426 0Z" fill="#297ea6" stroke="#297ea6"></path><path d="M754 523L773 468L690 503Z" fill="#1d4e6b" stroke="#1d4e6b"></path><path d="M775 410L824 357L765 405Z" fill="#0c2435" stroke="#0c2435"></path><path d="M185 139L144 215L203 204Z" fill="#205a7a" stroke="#205a7a"></path><path d="M149 251L128 322L150 321Z" fill="#15384f" stroke="#15384f"></path><path d="M773 468L787 449L765 405Z" fill="#277297" stroke="#277297"></path><path d="M840 360L824 357L838 372Z" fill="#1d4e6b" stroke="#1d4e6b"></path><path d="M706 0L669 -10L672 54Z" fill="#00101c" stroke="#00101c"></path><path d="M631 2L669 -10L615 0Z" fill="#0c2435" stroke="#0c2435"></path><path d="M98 217L136 224L144 215Z" fill="#1d4e6b" stroke="#1d4e6b"></path><path d="M144 215L136 224L149 251Z" fill="#205a7a" stroke="#205a7a"></path><path d="M136 224L131 238L149 251Z" fill="#081a28" stroke="#081a28"></path><path d="M824 357L835 303L783 329Z" fill="#246688" stroke="#246688"></path><path d="M773 9L726 0L750 102Z" fill="#00101c" stroke="#00101c"></path><path d="M278 -24L255 13L285 11Z" fill="#205a7a" stroke="#205a7a"></path><path d="M285 11L255 13L284 126Z" fill="#112e42" stroke="#112e42"></path><path d="M102 138L98 217L144 215Z" fill="#205a7a" stroke="#205a7a"></path><path d="M131 238L128 322L149 251Z" fill="#00101c" stroke="#00101c"></path><path d="M150 321L125 382L206 349Z" fill="#19435d" stroke="#19435d"></path><path d="M230 540L232 540L240 467Z" fill="#112e42" stroke="#112e42"></path><path d="M318 528L243 580L399 540Z" fill="#297ea6" stroke="#297ea6"></path><path d="M399 540L243 580L430 540Z" fill="#00101c" stroke="#00101c"></path><path d="M219 540L230 540L240 467Z" fill="#081a28" stroke="#081a28"></path><path d="M232 540L243 580L318 528Z" fill="#297ea6" stroke="#297ea6"></path><path d="M219 540L240 467L188 450Z" fill="#112e42" stroke="#112e42"></path><path d="M787 449L798 454L775 410Z" fill="#00101c" stroke="#00101c"></path><path d="M773 468L798 454L787 449Z" fill="#112e42" stroke="#112e42"></path><path d="M805 540L798 454L773 468Z" fill="#1d4e6b" stroke="#1d4e6b"></path><path d="M747 540L690 503L681 540Z" fill="#19435d" stroke="#19435d"></path><path d="M747 540L754 523L690 503Z" fill="#112e42" stroke="#112e42"></path><path d="M713 0L706 0L672 54Z" fill="#246688" stroke="#246688"></path><path d="M148 529L219 540L188 450Z" fill="#19435d" stroke="#19435d"></path><path d="M230 540L243 580L232 540Z" fill="#112e42" stroke="#112e42"></path><path d="M838 372L824 357L775 410Z" fill="#205a7a" stroke="#205a7a"></path><path d="M824 357L840 360L835 303Z" fill="#277297" stroke="#277297"></path><path d="M839 447L838 372L775 410Z" fill="#112e42" stroke="#112e42"></path><path d="M713 0L672 54L726 0Z" fill="#15384f" stroke="#15384f"></path><path d="M713 0L707 -4L706 0Z" fill="#0c2435" stroke="#0c2435"></path><path d="M706 0L707 -4L669 -10Z" fill="#277297" stroke="#277297"></path><path d="M255 13L192 60L274 130Z" fill="#081a28" stroke="#081a28"></path><path d="M136 224L98 217L131 238Z" fill="#15384f" stroke="#15384f"></path><path d="M726 0L719 107L750 102Z" fill="#246688" stroke="#246688"></path><path d="M630 554L747 540L681 540Z" fill="#246688" stroke="#246688"></path><path d="M754 523L805 540L773 468Z" fill="#297ea6" stroke="#297ea6"></path><path d="M111 345L150 321L128 322Z" fill="#205a7a" stroke="#205a7a"></path><path d="M111 345L125 382L150 321Z" fill="#19435d" stroke="#19435d"></path><path d="M451 -25L278 -24L426 0Z" fill="#205a7a" stroke="#205a7a"></path><path d="M255 13L199 39L192 60Z" fill="#1d4e6b" stroke="#1d4e6b"></path><path d="M747 540L759 532L754 523Z" fill="#081a28" stroke="#081a28"></path><path d="M125 382L135 422L192 412Z" fill="#19435d" stroke="#19435d"></path><path d="M230 0L199 39L255 13Z" fill="#19435d" stroke="#19435d"></path><path d="M102 138L144 215L185 139Z" fill="#297ea6" stroke="#297ea6"></path><path d="M94 327L111 345L128 322Z" fill="#00101c" stroke="#00101c"></path><path d="M125 382L115 403L135 422Z" fill="#277297" stroke="#277297"></path><path d="M828 109L768 173L858 157Z" fill="#0c2435" stroke="#0c2435"></path><path d="M713 0L726 0L707 -4Z" fill="#081a28" stroke="#081a28"></path><path d="M148 529L243 580L219 540Z" fill="#1d4e6b" stroke="#1d4e6b"></path><path d="M219 540L243 580L230 540Z" fill="#246688" stroke="#246688"></path><path d="M278 -24L230 0L255 13Z" fill="#19435d" stroke="#19435d"></path><path d="M79 359L115 403L125 382Z" fill="#0c2435" stroke="#0c2435"></path><path d="M120 490L148 529L188 450Z" fill="#0c2435" stroke="#0c2435"></path><path d="M858 157L808 250L888 218Z" fill="#112e42" stroke="#112e42"></path><path d="M858 157L768 206L808 250Z" fill="#246688" stroke="#246688"></path><path d="M136 93L185 139L192 60Z" fill="#081a28" stroke="#081a28"></path><path d="M131 238L94 327L128 322Z" fill="#19435d" stroke="#19435d"></path><path d="M111 345L79 359L125 382Z" fill="#0c2435" stroke="#0c2435"></path><path d="M68 239L94 327L131 238Z" fill="#00101c" stroke="#00101c"></path><path d="M838 372L879 382L840 360Z" fill="#112e42" stroke="#112e42"></path><path d="M798 454L839 447L775 410Z" fill="#00101c" stroke="#00101c"></path><path d="M830 540L839 447L798 454Z" fill="#081a28" stroke="#081a28"></path><path d="M136 74L192 60L123 57Z" fill="#081a28" stroke="#081a28"></path><path d="M136 74L136 93L192 60Z" fill="#0c2435" stroke="#0c2435"></path><path d="M888 218L808 250L897 249Z" fill="#112e42" stroke="#112e42"></path><path d="M879 382L835 303L840 360Z" fill="#1d4e6b" stroke="#1d4e6b"></path><path d="M242 -44L203 0L230 0Z" fill="#0c2435" stroke="#0c2435"></path><path d="M230 0L203 0L199 39Z" fill="#112e42" stroke="#112e42"></path><path d="M822 20L773 9L750 102Z" fill="#1d4e6b" stroke="#1d4e6b"></path><path d="M726 0L772 0L707 -4Z" fill="#246688" stroke="#246688"></path><path d="M772 0L773 9L811 0Z" fill="#15384f" stroke="#15384f"></path><path d="M171 0L192 60L199 39Z" fill="#1d4e6b" stroke="#1d4e6b"></path><path d="M136 93L102 138L185 139Z" fill="#0c2435" stroke="#0c2435"></path><path d="M73 48L102 138L136 93Z" fill="#297ea6" stroke="#297ea6"></path><path d="M822 20L750 102L828 109Z" fill="#00101c" stroke="#00101c"></path><path d="M773 9L772 0L726 0Z" fill="#112e42" stroke="#112e42"></path><path d="M707 -4L960 -46L669 -10Z" fill="#297ea6" stroke="#297ea6"></path><path d="M278 -24L242 -44L230 0Z" fill="#205a7a" stroke="#205a7a"></path><path d="M203 0L173 0L199 39Z" fill="#297ea6" stroke="#297ea6"></path><path d="M451 -25L242 -44L278 -24Z" fill="#0c2435" stroke="#0c2435"></path><path d="M960 -46L242 -44L451 -25Z" fill="#1d4e6b" stroke="#1d4e6b"></path><path d="M839 447L879 382L838 372Z" fill="#112e42" stroke="#112e42"></path><path d="M32 318L79 359L94 327Z" fill="#19435d" stroke="#19435d"></path><path d="M94 327L79 359L111 345Z" fill="#15384f" stroke="#15384f"></path><path d="M120 490L188 450L135 422Z" fill="#297ea6" stroke="#297ea6"></path><path d="M68 239L131 238L98 217Z" fill="#1d4e6b" stroke="#1d4e6b"></path><path d="M747 540L805 540L759 532Z" fill="#1d4e6b" stroke="#1d4e6b"></path><path d="M759 532L805 540L754 523Z" fill="#246688" stroke="#246688"></path><path d="M839 447L869 456L879 382Z" fill="#1d4e6b" stroke="#1d4e6b"></path><path d="M989 592L805 540L747 540Z" fill="#19435d" stroke="#19435d"></path><path d="M897 249L808 250L835 303Z" fill="#15384f" stroke="#15384f"></path><path d="M120 490L135 422L69 461Z" fill="#1d4e6b" stroke="#1d4e6b"></path><path d="M69 461L135 422L115 403Z" fill="#00101c" stroke="#00101c"></path><path d="M67 215L68 239L98 217Z" fill="#15384f" stroke="#15384f"></path><path d="M960 317L897 249L835 303Z" fill="#19435d" stroke="#19435d"></path><path d="M242 -44L173 0L203 0Z" fill="#19435d" stroke="#19435d"></path><path d="M136 74L123 57L136 93Z" fill="#081a28" stroke="#081a28"></path><path d="M65 141L67 215L98 217Z" fill="#0c2435" stroke="#0c2435"></path><path d="M242 -44L171 0L173 0Z" fill="#15384f" stroke="#15384f"></path><path d="M173 0L171 0L199 39Z" fill="#246688" stroke="#246688"></path><path d="M830 540L869 456L839 447Z" fill="#00101c" stroke="#00101c"></path><path d="M960 274L906 218L897 249Z" fill="#246688" stroke="#246688"></path><path d="M171 0L123 57L192 60Z" fill="#205a7a" stroke="#205a7a"></path><path d="M102 138L65 141L98 217Z" fill="#277297" stroke="#277297"></path><path d="M897 249L906 218L888 218Z" fill="#15384f" stroke="#15384f"></path><path d="M888 218L898 153L858 157Z" fill="#246688" stroke="#246688"></path><path d="M845 0L822 20L828 109Z" fill="#277297" stroke="#277297"></path><path d="M960 274L897 249L960 317Z" fill="#00101c" stroke="#00101c"></path><path d="M989 592L830 540L805 540Z" fill="#205a7a" stroke="#205a7a"></path><path d="M805 540L830 540L798 454Z" fill="#081a28" stroke="#081a28"></path><path d="M904 136L828 109L858 157Z" fill="#246688" stroke="#246688"></path><path d="M91 540L128 540L120 490Z" fill="#081a28" stroke="#081a28"></path><path d="M120 490L128 540L148 529Z" fill="#0c2435" stroke="#0c2435"></path><path d="M148 529L128 540L243 580Z" fill="#246688" stroke="#246688"></path><path d="M822 20L811 0L773 9Z" fill="#112e42" stroke="#112e42"></path><path d="M772 0L960 -46L707 -4Z" fill="#081a28" stroke="#081a28"></path><path d="M669 -10L960 -46L451 -25Z" fill="#246688" stroke="#246688"></path><path d="M906 218L898 153L888 218Z" fill="#15384f" stroke="#15384f"></path><path d="M822 20L845 0L811 0Z" fill="#246688" stroke="#246688"></path><path d="M20 343L58 398L79 359Z" fill="#00101c" stroke="#00101c"></path><path d="M79 359L58 398L115 403Z" fill="#277297" stroke="#277297"></path><path d="M32 318L94 327L68 239Z" fill="#1d4e6b" stroke="#1d4e6b"></path><path d="M73 48L65 141L102 138Z" fill="#277297" stroke="#277297"></path><path d="M0 303L32 318L0 257Z" fill="#246688" stroke="#246688"></path><path d="M58 398L57 418L115 403Z" fill="#15384f" stroke="#15384f"></path><path d="M0 435L57 418L58 398Z" fill="#297ea6" stroke="#297ea6"></path><path d="M897 469L893 455L869 456Z" fill="#00101c" stroke="#00101c"></path><path d="M869 456L907 445L879 382Z" fill="#081a28" stroke="#081a28"></path><path d="M960 152L904 136L898 153Z" fill="#205a7a" stroke="#205a7a"></path><path d="M898 153L904 136L858 157Z" fill="#0c2435" stroke="#0c2435"></path><path d="M57 418L69 461L115 403Z" fill="#19435d" stroke="#19435d"></path><path d="M989 592L853 540L830 540Z" fill="#297ea6" stroke="#297ea6"></path><path d="M830 540L853 540L869 456Z" fill="#277297" stroke="#277297"></path><path d="M960 540L989 592L1011 546Z" fill="#205a7a" stroke="#205a7a"></path><path d="M32 318L68 239L0 257Z" fill="#081a28" stroke="#081a28"></path><path d="M888 505L897 469L869 456Z" fill="#112e42" stroke="#112e42"></path><path d="M893 455L907 445L869 456Z" fill="#00101c" stroke="#00101c"></path><path d="M897 469L907 445L893 455Z" fill="#0c2435" stroke="#0c2435"></path><path d="M123 57L73 48L136 93Z" fill="#081a28" stroke="#081a28"></path><path d="M171 0L125 0L123 57Z" fill="#277297" stroke="#277297"></path><path d="M242 -44L125 0L171 0Z" fill="#297ea6" stroke="#297ea6"></path><path d="M853 540L888 505L869 456Z" fill="#246688" stroke="#246688"></path><path d="M960 418L949 380L907 445Z" fill="#246688" stroke="#246688"></path><path d="M906 -4L845 0L828 109Z" fill="#15384f" stroke="#15384f"></path><path d="M811 0L960 -46L772 0Z" fill="#0c2435" stroke="#0c2435"></path><path d="M0 303L20 343L32 318Z" fill="#00101c" stroke="#00101c"></path><path d="M32 318L20 343L79 359Z" fill="#205a7a" stroke="#205a7a"></path><path d="M57 418L0 456L69 461Z" fill="#246688" stroke="#246688"></path><path d="M0 540L91 540L69 461Z" fill="#246688" stroke="#246688"></path><path d="M69 461L91 540L120 490Z" fill="#0c2435" stroke="#0c2435"></path><path d="M128 540L22 592L243 580Z" fill="#1d4e6b" stroke="#1d4e6b"></path><path d="M125 0L73 48L123 57Z" fill="#246688" stroke="#246688"></path><path d="M0 257L68 239L0 247Z" fill="#246688" stroke="#246688"></path><path d="M960 378L949 380L960 418Z" fill="#19435d" stroke="#19435d"></path><path d="M907 445L949 380L879 382Z" fill="#15384f" stroke="#15384f"></path><path d="M906 218L960 197L898 153Z" fill="#297ea6" stroke="#297ea6"></path><path d="M960 317L835 303L879 382Z" fill="#00101c" stroke="#00101c"></path><path d="M959 337L960 317L879 382Z" fill="#0c2435" stroke="#0c2435"></path><path d="M949 380L959 337L879 382Z" fill="#112e42" stroke="#112e42"></path><path d="M68 239L67 215L0 247Z" fill="#112e42" stroke="#112e42"></path><path d="M20 343L0 361L58 398Z" fill="#297ea6" stroke="#297ea6"></path><path d="M0 247L67 215L0 158Z" fill="#277297" stroke="#277297"></path><path d="M0 158L67 215L65 141Z" fill="#081a28" stroke="#081a28"></path><path d="M0 303L0 344L20 343Z" fill="#297ea6" stroke="#297ea6"></path><path d="M960 274L960 197L906 218Z" fill="#277297" stroke="#277297"></path><path d="M904 136L906 -4L828 109Z" fill="#081a28" stroke="#081a28"></path><path d="M125 0L94 -10L73 48Z" fill="#1d4e6b" stroke="#1d4e6b"></path><path d="M0 153L0 158L65 141Z" fill="#1d4e6b" stroke="#1d4e6b"></path><path d="M242 -44L94 -10L125 0Z" fill="#0c2435" stroke="#0c2435"></path><path d="M960 418L907 445L960 499Z" fill="#297ea6" stroke="#297ea6"></path><path d="M949 380L960 378L959 337Z" fill="#15384f" stroke="#15384f"></path><path d="M959 337L984 380L960 317Z" fill="#0c2435" stroke="#0c2435"></path><path d="M0 344L0 361L20 343Z" fill="#081a28" stroke="#081a28"></path><path d="M960 197L960 164L898 153Z" fill="#15384f" stroke="#15384f"></path><path d="M960 499L907 445L897 469Z" fill="#112e42" stroke="#112e42"></path><path d="M960 164L960 152L898 153Z" fill="#112e42" stroke="#112e42"></path><path d="M0 303L-13 334L0 344Z" fill="#205a7a" stroke="#205a7a"></path><path d="M0 344L-13 334L0 361Z" fill="#297ea6" stroke="#297ea6"></path><path d="M0 257L-13 334L0 303Z" fill="#205a7a" stroke="#205a7a"></path><path d="M0 247L-13 334L0 257Z" fill="#205a7a" stroke="#205a7a"></path><path d="M960 152L960 151L904 136Z" fill="#1d4e6b" stroke="#1d4e6b"></path><path d="M0 153L65 141L0 84Z" fill="#297ea6" stroke="#297ea6"></path><path d="M0 247L-45 0L-13 334Z" fill="#19435d" stroke="#19435d"></path><path d="M0 84L65 141L73 48Z" fill="#1d4e6b" stroke="#1d4e6b"></path><path d="M0 158L-45 0L0 247Z" fill="#112e42" stroke="#112e42"></path><path d="M0 361L0 435L58 398Z" fill="#277297" stroke="#277297"></path><path d="M-13 334L0 435L0 361Z" fill="#205a7a" stroke="#205a7a"></path><path d="M-49 540L0 456L0 435Z" fill="#297ea6" stroke="#297ea6"></path><path d="M0 435L0 456L57 418Z" fill="#246688" stroke="#246688"></path><path d="M960 418L984 380L960 378Z" fill="#112e42" stroke="#112e42"></path><path d="M960 378L984 380L959 337Z" fill="#277297" stroke="#277297"></path><path d="M960 317L1000 196L960 274Z" fill="#1d4e6b" stroke="#1d4e6b"></path><path d="M1000 196L960 164L960 197Z" fill="#277297" stroke="#277297"></path><path d="M1000 196L986 155L960 164Z" fill="#205a7a" stroke="#205a7a"></path><path d="M960 164L986 155L960 152Z" fill="#246688" stroke="#246688"></path><path d="M960 152L986 155L960 151Z" fill="#0c2435" stroke="#0c2435"></path><path d="M45 -4L31 43L73 48Z" fill="#112e42" stroke="#112e42"></path><path d="M934 0L906 -4L960 45Z" fill="#246688" stroke="#246688"></path><path d="M845 0L960 -46L811 0Z" fill="#112e42" stroke="#112e42"></path><path d="M242 -44L68 -20L94 -10Z" fill="#00101c" stroke="#00101c"></path><path d="M94 -10L45 -4L73 48Z" fill="#277297" stroke="#277297"></path><path d="M1000 196L960 197L960 274Z" fill="#00101c" stroke="#00101c"></path><path d="M960 45L906 -4L904 136Z" fill="#112e42" stroke="#112e42"></path><path d="M0 0L0 84L31 43Z" fill="#112e42" stroke="#112e42"></path><path d="M31 43L0 84L73 48Z" fill="#0c2435" stroke="#0c2435"></path><path d="M0 153L-45 0L0 158Z" fill="#297ea6" stroke="#297ea6"></path><path d="M68 -20L45 -4L94 -10Z" fill="#081a28" stroke="#081a28"></path><path d="M960 418L1011 546L984 380Z" fill="#1d4e6b" stroke="#1d4e6b"></path><path d="M888 505L960 499L897 469Z" fill="#00101c" stroke="#00101c"></path><path d="M960 540L960 499L888 505Z" fill="#081a28" stroke="#081a28"></path><path d="M984 380L1000 196L960 317Z" fill="#15384f" stroke="#15384f"></path><path d="M960 45L904 136L960 151Z" fill="#0c2435" stroke="#0c2435"></path><path d="M960 45L960 151L986 155Z" fill="#297ea6" stroke="#297ea6"></path><path d="M960 0L960 45L986 155Z" fill="#246688" stroke="#246688"></path><path d="M960 499L1011 546L960 418Z" fill="#297ea6" stroke="#297ea6"></path><path d="M853 540L960 540L888 505Z" fill="#1d4e6b" stroke="#1d4e6b"></path><path d="M960 540L853 540L989 592Z" fill="#0c2435" stroke="#0c2435"></path><path d="M-49 540L0 540L0 456Z" fill="#19435d" stroke="#19435d"></path><path d="M0 456L0 540L69 461Z" fill="#112e42" stroke="#112e42"></path><path d="M91 540L22 592L128 540Z" fill="#15384f" stroke="#15384f"></path><path d="M960 0L950 -4L934 0Z" fill="#081a28" stroke="#081a28"></path><path d="M934 0L960 -46L906 -4Z" fill="#246688" stroke="#246688"></path><path d="M906 -4L960 -46L845 0Z" fill="#246688" stroke="#246688"></path><path d="M960 0L934 0L960 45Z" fill="#1d4e6b" stroke="#1d4e6b"></path><path d="M0 540L22 592L91 540Z" fill="#112e42" stroke="#112e42"></path><path d="M960 -46L960 0L986 155Z" fill="#277297" stroke="#277297"></path><path d="M0 -7L0 0L45 -4Z" fill="#1d4e6b" stroke="#1d4e6b"></path><path d="M45 -4L0 0L31 43Z" fill="#15384f" stroke="#15384f"></path><path d="M-45 0L-49 540L-13 334Z" fill="#112e42" stroke="#112e42"></path><path d="M68 -20L0 -7L45 -4Z" fill="#297ea6" stroke="#297ea6"></path><path d="M-45 0L0 153L0 84Z" fill="#297ea6" stroke="#297ea6"></path><path d="M1000 196L960 -46L986 155Z" fill="#246688" stroke="#246688"></path><path d="M960 0L960 -46L950 -4Z" fill="#081a28" stroke="#081a28"></path><path d="M950 -4L960 -46L934 0Z" fill="#112e42" stroke="#112e42"></path><path d="M-13 334L-49 540L0 435Z" fill="#297ea6" stroke="#297ea6"></path><path d="M0 540L-49 540L22 592Z" fill="#205a7a" stroke="#205a7a"></path><path d="M-45 0L0 84L0 0Z" fill="#0c2435" stroke="#0c2435"></path><path d="M989 592L747 540L630 554Z" fill="#246688" stroke="#246688"></path><path d="M960 540L1011 546L960 499Z" fill="#205a7a" stroke="#205a7a"></path><path d="M984 380L1011 546L1000 196Z" fill="#205a7a" stroke="#205a7a"></path><path d="M989 592L630 554L243 580Z" fill="#081a28" stroke="#081a28"></path><path d="M22 592L989 592L243 580Z" fill="#277297" stroke="#277297"></path><path d="M68 -20L-45 0L0 -7Z" fill="#277297" stroke="#277297"></path><path d="M0 -7L-45 0L0 0Z" fill="#297ea6" stroke="#297ea6"></path></g></svg>